# xmcd
#
# Track frame offsets:
#	150
#	11456
#	23785
#	35546
#	47189
#	57992
#	70587
#	87982
#	98673
#	109620
#	118816
#	129440
#	148220
#	160225
#	173312
#	185094
#	202885
#	215345
#	243134
#	266027
#	276714
#	290444
#	308889
#	322072
#
# Disc length: 4426 seconds
#
# Revision: 0
# Processed by: cddbd v1.5.2PL0 Copyright (c) Steve Scherf et al.
# Submitted via: EasyCDDAExtractor 12.0.1.1
#
DISCID=5f114818
DTITLE=Johnny Cash - Complete Recording Sessions [Cd 13] 1963-1964 Sessions
DYEAR=2005
DGENRE=Country
TTITLE0=Dark As A Dungeon
TTITLE1=Understand Your Man
TTITLE2=I Walk The Line (Remake)
TTITLE3=Folsom Prison Blues (Remake)
TTITLE4=Give My Love To Rose (Remake)
TTITLE5=Wreck Of The Old '97 (Remake)
TTITLE6=Troublesome Waters
TTITLE7=Hey Porter (Remake)
TTITLE8=Goodbye Little Darlin' Goodbye
TTITLE9=How Did You Get Away From Me?
TTITLE10=Big River (Remake)
TTITLE11=The Ballad Of Ira Hayes
TTITLE12=Hammer And Nails
TTITLE13=My Old Faded Rose (Alt.)
TTITLE14=Apache Tears
TTITLE15=The Talking Leaves
TTITLE16=My Old Faded Rose
TTITLE17=As Long As Thegrass Shall Grow
TTITLE18=Drums
TTITLE19=Custer
TTITLE20=White Girl
TTITLE21=The Vanashing Race
TTITLE22=Mama, You've Been On My Mind
TTITLE23=Time And Time Again
EXTD=
EXTT0=
EXTT1=
EXTT2=
EXTT3=
EXTT4=
EXTT5=
EXTT6=
EXTT7=
EXTT8=
EXTT9=
EXTT10=
EXTT11=
EXTT12=
EXTT13=
EXTT14=
EXTT15=
EXTT16=
EXTT17=
EXTT18=
EXTT19=
EXTT20=
EXTT21=
EXTT22=
EXTT23=
PLAYORDER=
